<?xml version="1.0" standalone="no"?><!DOCTYPE svg PUBLIC "-//W3C//DTD SVG 1.1//EN" "http://www.w3.org/Graphics/SVG/1.1/DTD/svg11.dtd"><svg class="icon" width="24px" height="24px" viewBox="0 0 1024 1024" version="1.1" xmlns="http://www.w3.org/2000/svg"><path fill='#0085fe' d="M996.864 52.224l-209.92-48.128c-7.68-1.536-15.36-1.024-22.528 2.048l-245.76 112.64L292.352 24.064a34.304 34.304 0 0 0-26.624 0L22.528 118.784c-13.312 5.12-22.528 18.432-22.528 32.768v668.16c0 11.776 5.632 22.528 15.36 29.184 9.728 6.656 22.016 8.192 32.768 3.584l230.4-89.6 227.328 94.72c4.096 1.536 8.704 2.56 13.312 2.56 5.12 0 10.24-1.024 14.848-3.072l18.432-8.192-31.232-62.976-2.56 1.024-226.304-94.208c-4.096-2.048-8.704-2.56-13.312-2.56-4.096 0-8.704 1.024-12.8 2.56L70.144 768V175.616l207.872-80.896L505.344 189.44c9.216 3.584 19.456 3.584 28.16-0.512l248.832-114.176 171.008 39.424v595.968l-33.28-7.68-16.896 33.792c-2.56 6.144-5.632 11.776-8.704 17.408l-0.512 1.024-6.144 12.288 92.672 21.504c10.24 2.56 21.504 0 29.696-6.656 8.192-6.656 13.312-16.896 13.312-27.648V86.016c0.512-15.872-10.752-30.208-26.624-33.792z"  /><path fill='#0085fe' d="M264.704 185.344V609.28c0 7.68 6.144 13.824 14.336 13.824 7.68 0 13.824-6.144 13.824-13.824V185.344c0-7.68-6.144-13.824-13.824-13.824-8.192-0.512-14.336 5.632-14.336 13.824zM504.832 267.264v213.504c0 7.68 6.144 13.824 13.824 13.824 7.68 0 14.336-6.144 14.336-13.824V267.264c0-7.68-6.144-14.336-14.336-14.336-7.168 0-13.824 6.656-13.824 14.336zM797.696 412.672V155.136c0-7.68-6.144-14.336-13.824-14.336-7.68 0-13.824 6.144-13.824 14.336v257.536c0 7.68 6.144 13.824 13.824 13.824 7.68 0 13.824-6.144 13.824-13.824zM699.904 480.768c-91.648 0-166.4 74.24-166.4 166.4 0 30.208 8.192 58.88 22.528 82.944l15.872 32.256 31.232 62.976 96.768 196.096 132.096-266.752 12.288-24.576c7.168-12.8 13.312-26.624 16.896-40.96 3.584-13.312 5.632-27.648 5.632-41.984-0.512-92.16-74.752-166.4-166.912-166.4z m0 215.552c-38.4 0-70.144-31.232-70.144-69.632s31.232-70.144 70.144-70.144c38.4 0 70.144 31.232 70.144 70.144 0 38.4-31.232 69.632-70.144 69.632z"  /></svg>