<?xml version="1.0" encoding="utf-8"?>
<!-- Generator: Adobe Illustrator 22.1.0, SVG Export Plug-In . SVG Version: 6.00 Build 0)  -->
<svg version="1.1" id="图层_1" xmlns="http://www.w3.org/2000/svg" xmlns:xlink="http://www.w3.org/1999/xlink" x="0" y="0" width="50px" height="50px"
	 viewBox="0 0 200 200" style="enable-background:new 0 0 200 200;" xml:space="preserve">
<path fill='#fff' d="M72,100L72,100c-0.2,2.6,0.6,5.3,2.6,7.2l37.6,37.5c3.7,3.6,9.5,3.6,13.2,0c3.7-3.7,3.6-9.5,0-13.2L93.7,100l31.6-31.6
	c3.6-3.6,3.6-9.6,0-13.2c-3.7-3.6-9.6-3.6-13.2,0L74.6,92.8C72.6,94.8,71.8,97.4,72,100L72,100z"/>
<path fill='#fff' d="M12.7,100c0-48.1,39.2-87.3,87.3-87.3c48.1,0,87.3,39.2,87.3,87.3s-39.2,87.3-87.3,87.3C51.9,187.3,12.7,148.1,12.7,100z
	 M27,100c0,40.3,32.7,73,73,73s73-32.7,73-73s-32.7-73-73-73C59.8,27,27,59.7,27,100z"/>
</svg>
