<?xml version="1.0" standalone="no"?><!DOCTYPE svg PUBLIC "-//W3C//DTD SVG 1.1//EN" "http://www.w3.org/Graphics/SVG/1.1/DTD/svg11.dtd"><svg t="1534241332092" class="icon" style="" viewBox="0 0 1024 1024" version="1.1" xmlns="http://www.w3.org/2000/svg" p-id="9365" xmlns:xlink="http://www.w3.org/1999/xlink" width="200" height="200"><defs><style type="text/css"></style></defs><path fill='#1789FF' d="M926.82449 62.693878H95.83207C42.990087 62.693878 0 105.683965 0 158.675219v703.067055c0 52.991254 42.990087 95.981341 95.981341 95.981341h830.99242c52.991254 0 95.981341-42.990087 95.981341-95.981341v-703.067055c-0.149271-52.991254-43.139359-95.981341-96.130612-95.981341zM95.83207 126.581924h830.99242c17.613994 0 31.944023 14.330029 31.944023 31.944024v376.461807c-51.498542-42.243732-140.762682-99.265306-247.939358-99.265306-98.817493 0-196.142274 76.576093-290.332362 150.614577-72.097959 56.723032-146.733528 115.386589-199.127697 115.386589-73.441399 0-136.284548-54.036152-157.63032-74.635568V158.675219c0.149271-17.763265 14.4793-32.093294 32.093294-32.093295z m0 0" p-id="9366"></path><path fill='#1789FF' d="M290.481633 486.922449c70.754519 0 128.074636-57.320117 128.074635-128.074636s-57.320117-128.074636-128.074635-128.074635-128.074636 57.320117-128.074636 128.074635 57.320117 128.074636 128.074636 128.074636z m0 0" p-id="9367"></path></svg>