<?xml version="1.0" standalone="no"?><!DOCTYPE svg PUBLIC "-//W3C//DTD SVG 1.1//EN" "http://www.w3.org/Graphics/SVG/1.1/DTD/svg11.dtd"><svg t="1534241056750" class="icon" style="" viewBox="0 0 1024 1024" version="1.1" xmlns="http://www.w3.org/2000/svg" p-id="4952" xmlns:xlink="http://www.w3.org/1999/xlink" width="200" height="200"><defs><style type="text/css"></style></defs><path d="M994.952673 708.965685c-2.164014-11.76274-13.536268-23.711261-25.299008-26.453263l-8.807433-1.948989c-44.41561-13.431336-70.702014-59.114734-59.976556-104.26315l2.743722-8.231166c3.536735-11.363653-0.977075-27.247996-10.183594-35.078355 0 0-8.224285-7.07175-31.54162-20.391272-23.317335-13.314362-33.308267-17.031718-33.308268-17.031718-11.370534-4.119883-27.249717-0.187502-35.479162 8.621652l-6.061991 6.676103a86.971682 86.971682 0 0 1-60.162337 23.926287 86.822025 86.822025 0 0 1-60.377363-24.112069l-5.88309-6.275296c-8.229445-8.809153-24.108628-12.741535-35.472281-8.628532 0 0-10.214558 3.722517-33.525012 17.067842-23.315615 13.534548-31.546781 20.575334-31.546781 20.575334-9.20652 7.646297-13.715169 23.315615-10.211118 34.896013l2.55794 8.43931a87.759535 87.759535 0 0 1-9.418104 64.27534A86.77902 86.77902 0 0 1 492.041359 681.199908l-8.44103 1.950709c-11.580398 2.745442-23.133274 14.508182-25.299008 26.456703 0 0-1.948989 10.57408-1.948989 37.42471s1.948989 37.42815 1.948989 37.428151c2.165734 11.948522 13.536268 23.711261 25.299008 26.451543l8.231165 1.957589c44.75621 13.156103 71.378053 59.052807 60.585507 104.443772l-2.344635 8.224285c-3.536735 11.372254 0.971914 27.249717 10.181874 35.085236 0 0 8.226005 7.064869 31.54162 20.389551 23.319055 13.531107 33.309987 17.035158 33.309988 17.035159 11.367093 4.113002 27.247996 0.178901 35.474001-8.628533l5.886531-6.275296c33.822608-32.159172 86.921796-32.159172 120.747844 0l5.88137 6.275296c8.229445 8.807433 24.108628 12.739814 35.479162 8.628533 0 0 10.209398-3.719076 33.521572-17.035159 23.319055-13.532827 31.54334-20.389552 31.54334-20.389551 9.2048-7.649737 13.718609-23.53064 10.180154-35.085236l-2.55622-8.408346a87.29508 87.29508 0 0 1 9.418105-64.094719 86.985444 86.985444 0 0 1 51.167402-40.170152l8.231166-1.95587c11.549435-2.740281 23.129833-14.503021 25.293847-26.451543 0 0 1.954149-10.57408 1.954149-37.42815-0.608951-27.454421-2.375599-38.062905-2.375598-38.062905z m-268.35492 145.437901c-59.482858 0-107.705274-48.218976-107.705274-107.706995 0-59.482858 48.222417-107.703554 107.705274-107.703554s107.706995 48.220697 107.706995 107.703554c0 59.486298-48.224137 107.706995-107.706995 107.706995z" p-id="4953"></path><path d="M689.382908 24.445788H104.072208c-44.627195 0.018922-80.8168 36.14488-80.920012 80.766914v744.224661c0.103212 44.618594 36.297978 80.734231 80.920012 80.73423h329.39456s-135.778968-518.023287 336.863675-518.023286V105.212702c-0.098052-44.637516-36.31174-80.766914-80.947535-80.766914zM384.153743 564.350041H211.194334c-18.886095-0.786132-33.795084-16.326435-33.795084-35.229733s14.908989-34.4436 33.795084-35.229732h172.959409c19.460643 0 35.231453 15.77253 35.231453 35.229732 0.00172 19.457202-15.77253 35.229733-35.231453 35.229733z m170.126237-162.596913H211.194334c-19.453762 0-35.228012-15.77253-35.228012-35.231453 0-19.453762 15.77253-35.228012 35.228012-35.229733h343.085646c19.460643 0 35.229733 15.777691 35.229732 35.229733 0.00344 19.458923-15.76909 35.231453-35.229732 35.231453z m0-159.851472H211.194334c-19.458923 0-35.229733-15.77425-35.229733-35.231453s15.77253-35.231453 35.229733-35.231452h343.085646c19.460643 0 35.229733 15.77425 35.229732 35.231452 0.00344 19.457202-15.76909 35.231453-35.229732 35.231453z" p-id="4954"></path></svg>