<?xml version="1.0" standalone="no"?><!DOCTYPE svg PUBLIC "-//W3C//DTD SVG 1.1//EN" "http://www.w3.org/Graphics/SVG/1.1/DTD/svg11.dtd"><svg t="1534241032998" class="icon" style="" viewBox="0 0 1024 1024" version="1.1" xmlns="http://www.w3.org/2000/svg" p-id="3714" xmlns:xlink="http://www.w3.org/1999/xlink" width="200" height="200"><defs><style type="text/css"></style></defs><path d="M998.96888889 607.57333333l-86.47111111-65.536c0.91022222-9.10222222 1.82044445-19.11466667 1.82044444-30.03733333s-0.91022222-20.93511111-1.82044444-30.03733333l86.47111111-65.536c23.66577778-18.20558222 30.03733333-50.06222222 14.56355556-77.36888889L917.04888889 176.128c-10.92380445-19.11466667-31.85777778-30.94755555-53.70311111-30.94755555-7.28177778 0-13.65333333 0.91022222-20.93511111 3.64202666L739.55555555 188.87338667c-17.29422222-11.83288889-35.49866667-21.84533333-53.7031111-30.03733334l-15.47377778-104.67555555c-4.55111111-30.03733333-30.03733333-51.88266667-60.98488889-51.88266667H414.60622222c-30.94755555 0-56.43377778 21.84533333-60.98488889 50.97244444L339.05777778 158.83719111c-18.20558222 8.192-35.49866667 18.20558222-53.70311111 30.03733334l-102.85511112-40.05091556c-7.28177778-2.73066667-14.56355555-3.64202667-21.84533333-3.64202667-21.84533333 0-42.78044445 10.92380445-52.79288889 30.03733333L10.46755555 339.06005333c-15.47377778 25.48736-9.10222222 59.16444445 14.56355556 77.36888889l86.47111111 65.536c-0.91022222 10.92380445-1.82044445 20.93511111-1.82044444 30.03733333s0 19.11466667 1.82044444 30.03733334l-86.47111111 65.536c-23.66577778 18.20558222-30.03733333 50.06222222-14.56355556 77.36888889l96.48355556 162.92977777c10.92380445 19.11466667 31.85777778 30.94755555 53.70311111 30.94755556 7.28177778 0 13.65333333-0.91022222 20.93511111-3.64202666L284.44444445 835.12888889c17.29422222 11.83288889 35.49866667 21.84533333 53.7031111 30.03733333l15.47377778 104.67555556c3.64202667 29.12711111 30.03733333 51.88266667 60.98488889 51.88266667h194.78755556c30.94755555 0 56.43377778-21.84533333 60.98488889-50.97244445l15.47377778-105.58691555c18.20558222-8.192 35.49866667-18.20558222 53.7031111-30.03733334l102.85511112 40.05091556c7.28177778 2.73066667 14.56355555 3.64202667 21.84533333 3.64202666 21.84533333 0 42.78044445-10.92380445 52.79288889-30.03733333l97.39377778-164.75022222c14.56355555-26.39644445 8.192-58.25422222-15.47377778-76.45980445z m-268.51555556-95.57333333c0 120.15047111-98.30513778 218.45333333-218.45333333 218.45333333s-218.45333333-98.30513778-218.45333333-218.45333333 98.30513778-218.45333333 218.45333333-218.45333333 218.45333333 98.30513778 218.45333333 218.45333333z" p-id="3715"></path></svg>