<?xml version="1.0" standalone="no"?><!DOCTYPE svg PUBLIC "-//W3C//DTD SVG 1.1//EN" "http://www.w3.org/Graphics/SVG/1.1/DTD/svg11.dtd"><svg t="1534239678691" class="icon" style="" viewBox="0 0 1024 1024" version="1.1" xmlns="http://www.w3.org/2000/svg" p-id="2192" xmlns:xlink="http://www.w3.org/1999/xlink" width="50px" height="50px"><defs><style type="text/css"></style></defs><path fill='#fff' d="M655.584 512.032c0.992-13.184-3.264-26.657-13.312-36.928l-192.128-192.416c-18.688-18.592-48.896-18.624-67.68 0-18.688 18.656-18.592 48.992-0.128 67.648l161.792 161.728-161.824 161.6c-18.496 18.752-18.784 48.832-0.064 67.584 18.88 18.688 48.992 18.624 67.744 0l192.288-192.16c10.143-10.176 14.336-23.648 13.312-37.057v0zM473.376 511.776z" p-id="2193"></path><path fill='#fff' d="M512 958.913c-246.4 0-446.879-200.512-446.879-446.912s200.449-446.912 446.879-446.912c246.432 0 446.945 200.512 446.945 446.912s-200.512 446.912-446.945 446.912zM512 138.24c-206.081 0-373.76 167.648-373.76 373.76s167.648 373.76 373.76 373.76 373.76-167.68 373.76-373.76-167.68-373.76-373.76-373.76z" p-id="2194"></path></svg>